{"title":"Dicte.S03E03.DANISH.720p50.HDTV-z97","uid":15772181,"size":914231861,"categoryP":"video","categoryS":"hd___tv_shows","magnet":"?xt=urn:btih:eaa1f8009b5da22ecfd6e5c8a28a4cc635729564&amp;dn=Dicte.S03E03.DANISH.720p50.HDTV-z97&amp;tr=udp%3A%2F%2Ftracker.leechers-paradise.org%3A6969&amp;tr=udp%3A%2F%2Fzer0day.ch%3A1337&amp;tr=udp%3A%2F%2Fopen.demonii.com%3A1337&amp;tr=udp%3A%2F%2Ftracker.coppersurfer.tk%3A6969&amp;tr=udp%3A%2F%2Fexodus.desync.com%3A6969","seeders":15,"leechers":2,"uploader":"48848448","files":2,"time":1473211180,"description":"RELEASE NOTES                         \r\n▄▄▄▄▄▄▄▄▄▄▄▄▄▄▄▄▄▄▄▄▄▄▄▄▄▄▄▄▄▄▄▄▄▄▄▄▄▄▄▄▄▄▄▄▄▄▄▄▄▄▄▄▄▄▄▄▄▄▄▄▄▄▄▄▄\r\n\r\n                 Dicte - Season 3 Episode 3\r\n            \r\niMDB url                       : www.imdb.com/title/tt2025899/\r\niMDB Rating                    : 7.2/10 from 1074 users\r\nRelease                        : 2016 - September 5th\r\nGenre                          : Krimi, Drama, Familie\r\nSource                         : DVB-C / 720p / 50 FPS\r\nSubs                           : Hardcoded where needed\r\n\r\n\r\n                      RELEASE INFORMATION                 \r\n▄▄▄▄▄▄▄▄▄▄▄▄▄▄▄▄▄▄▄▄▄▄▄▄▄▄▄▄▄▄▄▄▄▄▄▄▄▄▄▄▄▄▄▄▄▄▄▄▄▄▄▄▄▄▄▄▄▄▄▄▄▄▄▄▄▄\r\n\r\nVideo\r\nID                             : 1\r\nFormat                         : AVC\r\nFormat/Info                    : Advanced Video Codec\r\nFormat profile                 :   \r\nFormat settings, CABAC         : Yes\r\nFormat settings, ReFrames      : 5 frames\r\nCodec ID                       : V_MPEG4/ISO/AVC\r\nDuration                       : 42mn 13s\r\nBit rate                       : 2 382 Kbps\r\nWidth                          : 1 280 pixels\r\nHeight                         : 720 pixels\r\nDisplay aspect ratio           : 16:9\r\nFrame rate mode                : Constant\r\nFrame rate                     : 50.000 fps\r\nColor space                    : YUV\r\nChroma subsampling             : 4:2:0\r\nBit depth                      : 8 bits\r\nScan type                      : Progressive\r\nBits/(Pixel*Frame)             : 0.052\r\nStream size                    : 719 MiB (82%)\r\nWriting library                : x264 core 148 r2705 3f5ed56\r\nLanguage                       : Danish\r\nDefault                        : Yes\r\nForced                         : No\r\n\r\nAudio\r\nID                             : 2\r\nFormat                         : AC-3\r\nFormat/Info                    : Audio Coding 3\r\nMode extension                 : CM (complete main)\r\nFormat settings, Endianness    : Big\r\nCodec ID                       : A_AC3\r\nDuration                       : 42mn 13s\r\nBit rate mode                  : Constant\r\nBit rate                       : 448 Kbps\r\nChannel(s)                     : 6 channels\r\nChannel positions              : Front: L C R, Side: L R, LFE\r\nSampling rate                  : 48.0 KHz\r\nCompression mode               : Lossy\r\nStream size                    : 135 MiB (16%)\r\nLanguage                       : Danish\r\nDefault                        : Yes\r\nForced                         : No","torrent":{"xt":"urn:btih:eaa1f8009b5da22ecfd6e5c8a28a4cc635729564","amp;dn":"Dicte.S03E03.DANISH.720p50.HDTV-z97","amp;tr":["udp%3A%2F%2Ftracker.leechers-paradise.org%3A6969","udp%3A%2F%2Fzer0day.ch%3A1337","udp%3A%2F%2Fopen.demonii.com%3A1337","udp%3A%2F%2Ftracker.coppersurfer.tk%3A6969","udp%3A%2F%2Fexodus.desync.com%3A6969"],"infoHash":"eaa1f8009b5da22ecfd6e5c8a28a4cc635729564","infoHashBuffer":{"type":"Buffer","data":[234,161,248,0,155,93,162,46,207,214,229,200,162,138,76,198,53,114,149,100]},"announce":[],"urlList":[]}}